<svg fill="none" height="24" viewBox="0 0 21 24" width="21" xmlns="http://www.w3.org/2000/svg"><path d="m19.5 1.5h-18.00469c-.824998 0-1.49531.67969-1.49531 1.51406v17.97184c0 .8344.670312 1.5141 1.49531 1.5141h18.00469c.825 0 1.5-.6797 1.5-1.5141v-17.97184c0-.83437-.675-1.51406-1.5-1.51406zm-13.15313 18h-3.11249v-10.02188h3.11718v10.02188zm-1.55625-11.39062c-.99843 0-1.80468-.81094-1.80468-1.80469s.80625-1.80469 1.80468-1.80469c.99375 0 1.80469.81094 1.80469 1.80469 0 .99843-.80625 1.80469-1.80469 1.80469zm13.22348 11.39062h-3.1125v-4.875c0-1.1625-.0235-2.6578-1.6172-2.6578-1.6219 0-1.8703 1.2656-1.8703 2.5734v4.9594h-3.11254v-10.02188h2.98594v1.36878h.0422c.4172-.7875 1.4344-1.61721 2.9484-1.61721 3.15 0 3.736 2.07651 3.736 4.77651z" fill="#000"/></svg>