<svg fill="none" height="24" viewBox="0 0 30 24" width="30" xmlns="http://www.w3.org/2000/svg"><path d="m8.46094 3.48102c-4.67283 0-8.46094 3.81427-8.46094 8.51898 0 4.7047 3.78839 8.519 8.46094 8.519 4.67256 0 8.46096-3.814 8.46096-8.519s-3.7879-8.51898-8.46096-8.51898zm13.51176.49903c-2.3365 0-4.2303 3.59152-4.2303 8.02005 0 4.4286 1.8941 8.0203 4.2305 8.0203 2.3365 0 4.2306-3.5915 4.2306-8.0203h-.0004c0-4.4298-1.8937-8.02005-4.2303-8.02005zm6.5393.83536c-.8215 0-1.4876 3.21694-1.4876 7.18469 0 3.9678.6656 7.1848 1.4876 7.1848s1.488-3.2178 1.488-7.1849c0-3.96793-.6663-7.18459-1.4879-7.18459z" fill="#000"/></svg>